<svg width="28" height="28" viewBox="0 0 28 28" fill="none" xmlns="http://www.w3.org/2000/svg">
<path d="M8.39954 6.04078C8.51451 5.92701 8.60466 5.79065 8.6643 5.64031C8.72395 5.48996 8.7518 5.32889 8.74609 5.16725C8.74039 5.0056 8.70126 4.8469 8.63117 4.70113C8.56107 4.55536 8.46154 4.4257 8.33884 4.32031C7.72136 3.79333 6.93687 3.50263 6.12509 3.5L5.94626 3.50492H5.92001C4.06884 3.61758 2.62509 5.22539 2.62891 7.16406C2.62891 8.20312 3.06641 8.75328 3.41204 9.19352C3.509 9.31662 3.63058 9.41814 3.769 9.49159C3.90742 9.56503 4.05965 9.6088 4.21595 9.62008C4.23016 9.62008 4.25423 9.62281 4.32532 9.62281C4.4659 9.62261 4.60499 9.59396 4.73422 9.53861C4.86344 9.48325 4.98013 9.40233 5.07727 9.3007L8.39954 6.04078ZM22.0824 3.50602L21.9035 3.50055H21.8751C21.0626 3.50266 20.2772 3.79339 19.6592 4.32086C19.5366 4.42624 19.4372 4.55584 19.3672 4.70151C19.2973 4.84717 19.2582 5.00575 19.2525 5.16726C19.2468 5.32877 19.2746 5.48971 19.3341 5.63995C19.3937 5.79019 19.4837 5.92648 19.5984 6.04023L22.9218 9.30234C23.0192 9.40433 23.1362 9.48551 23.2658 9.54097C23.3954 9.59643 23.535 9.62502 23.6759 9.625C23.7459 9.625 23.77 9.625 23.7853 9.62227C23.9415 9.61091 24.0936 9.56711 24.232 9.49367C24.3703 9.42022 24.4918 9.31874 24.5887 9.1957C24.9365 8.75547 25.3696 8.20695 25.3718 7.16625C25.3751 5.22539 23.9313 3.61758 22.0824 3.50602Z" fill="#FAFAFA"/>
<path d="M14.0039 5.25C8.6992 5.25 4.37888 9.56758 4.37888 14.875C4.377 17.1253 5.16709 19.3044 6.61068 21.0306L4.63537 23.0065C4.55218 23.0873 4.4859 23.1839 4.44037 23.2905C4.39483 23.3972 4.37096 23.5119 4.37014 23.6278C4.36932 23.7438 4.39156 23.8588 4.43558 23.9661C4.47959 24.0734 4.54451 24.1709 4.62654 24.2529C4.70857 24.3349 4.80608 24.3998 4.9134 24.4437C5.02073 24.4877 5.13573 24.5099 5.2517 24.509C5.36768 24.5081 5.48233 24.4842 5.58898 24.4386C5.69563 24.3931 5.79216 24.3267 5.87295 24.2435L7.84826 22.2682C9.57539 23.7102 11.7539 24.5001 14.0039 24.5001C16.2538 24.5001 18.4324 23.7102 20.1595 22.2682L22.1354 24.2435C22.2162 24.3267 22.3127 24.3931 22.4193 24.4386C22.526 24.4842 22.6406 24.5081 22.7566 24.509C22.8726 24.5099 22.9876 24.4877 23.0949 24.4437C23.2022 24.3998 23.2997 24.3349 23.3818 24.2529C23.4638 24.1709 23.5287 24.0734 23.5727 23.9661C23.6168 23.8588 23.639 23.7438 23.6382 23.6278C23.6374 23.5119 23.6135 23.3972 23.5679 23.2905C23.5224 23.1839 23.4561 23.0873 23.3729 23.0065L21.3971 21.0306C22.8409 19.3046 23.631 17.1253 23.6289 14.875C23.6289 9.57031 19.3113 5.25 14.0039 5.25ZM14.8789 14.875C14.8789 15.1071 14.7867 15.3296 14.6226 15.4937C14.4585 15.6578 14.2359 15.75 14.0039 15.75H9.62888C9.39682 15.75 9.17426 15.6578 9.01017 15.4937C8.84607 15.3296 8.75388 15.1071 8.75388 14.875C8.75388 14.6429 8.84607 14.4204 9.01017 14.2563C9.17426 14.0922 9.39682 14 9.62888 14H13.1289V8.75C13.1289 8.51794 13.2211 8.29538 13.3852 8.13128C13.5493 7.96719 13.7718 7.875 14.0039 7.875C14.2359 7.875 14.4585 7.96719 14.6226 8.13128C14.7867 8.29538 14.8789 8.51794 14.8789 8.75V14.875Z" fill="#FAFAFA"/>
</svg>
