<svg width="28" height="28" viewBox="0 0 28 28" fill="none" xmlns="http://www.w3.org/2000/svg">
<path d="M11.6667 3.49999C11.3361 3.49999 11.0592 3.38799 10.836 3.16399C10.6128 2.93999 10.5008 2.6631 10.5 2.33332C10.4992 2.00355 10.6112 1.72666 10.836 1.50266C11.0608 1.27866 11.3377 1.16666 11.6667 1.16666H16.3333C16.6639 1.16666 16.9412 1.27866 17.1652 1.50266C17.3892 1.72666 17.5008 2.00355 17.5 2.33332C17.4992 2.6631 17.3872 2.94038 17.164 3.16516C16.9408 3.38993 16.6639 3.50155 16.3333 3.49999H11.6667ZM14 16.3333C14.3306 16.3333 14.6078 16.2213 14.8318 15.9973C15.0558 15.7733 15.1674 15.4964 15.1667 15.1667V10.5C15.1667 10.1694 15.0547 9.89255 14.8307 9.66932C14.6067 9.4461 14.3298 9.3341 14 9.33332C13.6702 9.33255 13.3933 9.44455 13.1693 9.66932C12.9453 9.8941 12.8333 10.171 12.8333 10.5V15.1667C12.8333 15.4972 12.9453 15.7745 13.1693 15.9985C13.3933 16.2225 13.6702 16.3341 14 16.3333ZM14 25.6667C12.5611 25.6667 11.2047 25.3898 9.93067 24.836C8.65667 24.2822 7.54367 23.5285 6.59167 22.575C5.63967 21.6214 4.88639 20.508 4.33183 19.2348C3.77728 17.9616 3.5 16.6055 3.5 15.1667C3.5 13.7278 3.77728 12.3713 4.33183 11.0973C4.88639 9.82332 5.63967 8.71032 6.59167 7.75832C7.54367 6.80632 8.65705 6.05305 9.93183 5.49849C11.2066 4.94393 12.5627 4.66666 14 4.66666C15.2056 4.66666 16.3625 4.8611 17.4708 5.24999C18.5792 5.63888 19.6194 6.20277 20.5917 6.94166L21.4083 6.12499C21.6222 5.9111 21.8944 5.80416 22.225 5.80416C22.5556 5.80416 22.8278 5.9111 23.0417 6.12499C23.2556 6.33888 23.3625 6.6111 23.3625 6.94166C23.3625 7.27221 23.2556 7.54443 23.0417 7.75832L22.225 8.57499C22.9639 9.54721 23.5278 10.5875 23.9167 11.6958C24.3056 12.8042 24.5 13.9611 24.5 15.1667C24.5 16.6055 24.2227 17.962 23.6682 19.236C23.1136 20.51 22.3603 21.623 21.4083 22.575C20.4563 23.527 19.3429 24.2807 18.0682 24.836C16.7934 25.3913 15.4373 25.6682 14 25.6667Z" fill="#FAFAFA"/>
</svg>
