<svg width="28" height="28" viewBox="0 0 28 28" fill="none" xmlns="http://www.w3.org/2000/svg">
<g clip-path="url(#clip0_108_19)">
<path d="M15.855 15.855C16.3292 15.3808 16.6232 14.7245 16.6232 14C16.6232 13.2755 16.3292 12.6193 15.855 12.145C14.8225 11.1125 4.09497 4.095 4.09497 4.095C4.09497 4.095 11.095 14.8225 12.1275 15.855C12.3711 16.1017 12.6614 16.2975 12.9813 16.4312C13.3012 16.5649 13.6445 16.6337 13.9912 16.6337C14.338 16.6337 14.6812 16.5649 15.0012 16.4312C15.3211 16.2975 15.6113 16.1017 15.855 15.855Z" fill="#FAFAFA"/>
<path d="M14.0001 0V5.25H15.7501V2.7825C21.2678 3.64875 25.4381 8.3685 25.4381 14.0612C25.4377 15.8252 25.0284 17.5651 24.2422 19.1442C23.456 20.7233 22.3145 22.0986 20.9071 23.1621C19.4998 24.2255 17.8651 24.9483 16.1313 25.2734C14.3976 25.5986 12.6121 25.5173 10.915 25.0361C9.21798 24.5548 7.65563 23.6866 6.3507 22.4997C5.04578 21.3128 4.03382 19.8395 3.39431 18.1955C2.75481 16.5515 2.50518 14.7817 2.66503 13.025C2.82488 11.2683 3.38985 9.57254 4.31558 8.071L2.71258 5.7575C0.962299 8.14865 0.0222935 11.0367 0.0298301 14C0.0298301 16.7689 0.850916 19.4757 2.38926 21.778C3.9276 24.0803 6.1141 25.8747 8.67226 26.9343C11.2304 27.9939 14.0454 28.2712 16.7611 27.731C19.4768 27.1908 21.9714 25.8574 23.9293 23.8995C25.8873 21.9416 27.2206 19.447 27.7608 16.7313C28.301 14.0155 28.0238 11.2006 26.9641 8.64243C25.9045 6.08427 24.1101 3.89777 21.8078 2.35943C19.5055 0.821086 16.7988 0 14.0298 0L14.0001 0Z" fill="#FAFAFA"/>
</g>
<defs>
<clipPath id="clip0_108_19">
<rect width="28" height="28" fill="white"/>
</clipPath>
</defs>
</svg>
