<svg width="36" height="36" viewBox="0 0 36 36" fill="none" xmlns="http://www.w3.org/2000/svg">
<path d="M16.62 19.728L12 10.5L20.13 16.92C21.285 17.832 21.291 19.5705 20.142 20.49C19.8727 20.7057 19.5587 20.8587 19.2228 20.9377C18.8869 21.0167 18.5376 21.0198 18.2004 20.9469C17.8632 20.8739 17.5464 20.7266 17.2733 20.5157C17.0002 20.3049 16.7775 20.0358 16.6215 19.728" stroke="black" stroke-width="2.25" stroke-linecap="round" stroke-linejoin="round"/>
<path d="M7.50002 7.2301C6.07226 8.62958 4.93867 10.3004 4.16588 12.1442C3.3931 13.9881 2.99671 15.9678 3.00002 17.9671C3.00002 26.2696 9.71552 33.0001 18 33.0001C26.2845 33.0001 33 26.2696 33 17.9671C33.0028 14.5015 31.8079 11.1414 29.6175 8.45567C27.4271 5.76999 24.3759 3.92377 20.9805 3.2296C19.7265 2.9746 19.0995 2.8486 18.5505 3.3001C18.0015 3.7516 18 4.4806 18 5.9401V7.4431" stroke="black" stroke-width="2.25" stroke-linecap="round" stroke-linejoin="round"/>
</svg>
