<svg width="28" height="28" viewBox="0 0 28 28" fill="none" xmlns="http://www.w3.org/2000/svg">
<path d="M19.0866 16.3333C19.1799 15.5633 19.2499 14.7933 19.2499 14C19.2499 13.2067 19.1799 12.4367 19.0866 11.6667H23.0299C23.2166 12.4133 23.3333 13.195 23.3333 14C23.3333 14.805 23.2166 15.5867 23.0299 16.3333M17.0216 22.82C17.7216 21.525 18.2583 20.125 18.6316 18.6667H22.0733C20.9429 20.613 19.1497 22.0873 17.0216 22.82ZM16.7299 16.3333H11.2699C11.1533 15.5633 11.0833 14.7933 11.0833 14C11.0833 13.2067 11.1533 12.425 11.2699 11.6667H16.7299C16.8349 12.425 16.9166 13.2067 16.9166 14C16.9166 14.7933 16.8349 15.5633 16.7299 16.3333ZM13.9999 23.2867C13.0316 21.8867 12.2499 20.335 11.7716 18.6667H16.2283C15.7499 20.335 14.9683 21.8867 13.9999 23.2867ZM9.33325 9.33334H5.92659C7.045 7.38155 8.83702 5.90479 10.9666 5.18001C10.2666 6.47501 9.74159 7.87501 9.33325 9.33334ZM5.92659 18.6667H9.33325C9.74159 20.125 10.2666 21.525 10.9666 22.82C8.84123 22.0877 7.05159 20.6129 5.92659 18.6667ZM4.96992 16.3333C4.78325 15.5867 4.66659 14.805 4.66659 14C4.66659 13.195 4.78325 12.4133 4.96992 11.6667H8.91325C8.81992 12.4367 8.74992 13.2067 8.74992 14C8.74992 14.7933 8.81992 15.5633 8.91325 16.3333M13.9999 4.70168C14.9683 6.10168 15.7499 7.66501 16.2283 9.33334H11.7716C12.2499 7.66501 13.0316 6.10168 13.9999 4.70168ZM22.0733 9.33334H18.6316C18.2659 7.88856 17.7252 6.4938 17.0216 5.18001C19.1683 5.91501 20.9533 7.39668 22.0733 9.33334ZM13.9999 2.33334C7.54825 2.33334 2.33325 7.58334 2.33325 14C2.33325 17.0942 3.56242 20.0617 5.75034 22.2496C6.83369 23.3329 8.11981 24.1923 9.53528 24.7786C10.9507 25.3649 12.4678 25.6667 13.9999 25.6667C17.0941 25.6667 20.0616 24.4375 22.2495 22.2496C24.4374 20.0617 25.6666 17.0942 25.6666 14C25.6666 12.4679 25.3648 10.9508 24.7785 9.53537C24.1922 8.1199 23.3328 6.83378 22.2495 5.75043C21.1661 4.66708 19.88 3.80772 18.4646 3.22142C17.0491 2.63511 15.532 2.33334 13.9999 2.33334Z" fill="#FAFAFA"/>
</svg>
